# ProBuilder 5.0.6
# https://unity3d.com/unity/features/worldbuilding/probuilder
# 22/07/2022 16:52:04

mtllib ./MainGeo.mtl
o MainGeo

g Cube
v -12.33565 0 28.8259
v -12.33565 0 -1.249998
v -12.33565 11.05987 28.8259
v -12.33565 11.05987 -1.249998
v 0 0 -1.249998
v 0 0 28.8259
v 0 11.05987 -1.249998
v 0 11.05987 28.8259
v -12.33565 11.05987 31.8259
v -12.33565 0 31.8259
v -12.33565 11.05987 48.3259
v -12.33565 0 48.3259
v 30.25 0 31.8259
v 30.25 11.05987 31.8259
v 30.25 0 48.3259
v 30.25 11.05987 48.3259
v 0 0 31.8259
v 0 11.05987 31.8259
v 19.5 0 31.8259
v 19.5 11.05987 31.8259
v 0 0 48.3259
v 19.5 0 48.3259
v 0 11.05987 48.3259
v 19.5 11.05987 48.3259
v 19.5 0 -11.08705
v 19.5 11.05987 -11.08705
v 30.25 0 -10.9241
v 30.25 11.05987 -10.9241
v 19.5 0 -1.054462
v 19.5 11.05987 -1.054462
v 30.25 0 -0.9241047
v 30.25 11.05987 -0.9241047
v -12.33565 0 -11.25
v -12.33565 11.05987 -11.25
v 0 11.05987 -11.25
v 0 0 -11.25
v -3.988348 -9.536743E-08 28.82855
v -3.990723 11.04185 28.83251
v -4.015443 11.05476 31.82633
v -3.992355 -9.536743E-08 31.82607
v -8.019239 11.0554 28.83251
v -8.078887 -9.536743E-08 28.82854
v -8.090451 -9.536743E-08 31.82607
v -8.060246 11.05476 31.82633
v -3.983148 11.05987 48.3259
v -3.983148 0 48.3259
v -8.112383 11.05987 48.3259
v -8.112383 0 48.3259
v -4.001486 11.05987 -11.25
v -4.001486 0 -11.25
v -4.001486 11.05987 -1.249998
v -4.001486 0 -1.249998
v -8.076244 0 -11.25
v -8.076244 11.05987 -11.25
v -8.076244 11.05987 -1.249998
v -8.076244 0 -1.249998
v -4.667332 4.044488 31.82675
v -4.659502 -2.980232E-07 31.82648
v -7.264012 -2.861023E-07 31.82648
v -7.276187 4.044488 31.82675
v -4.667332 4.044488 28.83912
v -4.682246 -2.861023E-07 28.83489
v -7.260898 -2.861023E-07 28.83489
v -7.276187 4.044488 28.83912
v -7.25512 11.05987 48.3259
v -7.25512 0 48.3259
v -7.245199 11.05476 31.82633
v -7.24622 0 -11.25
v -7.24622 11.05987 -11.25
v -7.212336 11.04862 28.83251
v -7.24622 11.05987 -1.249998
v -7.24622 0 -1.249998
v -7.179114 4.044488 31.82675
v -7.179114 4.044488 28.83912
v -4.709091 11.05987 48.3259
v -4.709091 0 48.3259
v -4.720279 11.05476 31.82633
v -4.71381 0 -11.25
v -4.71381 11.05987 -11.25
v -4.71381 11.05987 -1.249998
v -4.691486 11.04523 28.83251
v -4.71381 0 -1.249998
v -5.01318 4.044488 31.82675
v -5.01318 4.044488 28.83912

vt -28.8259 0
vt 1.249998 0
vt -28.8259 11.05987
vt 1.249998 11.05987
vt -1.249998 0
vt 28.8259 0
vt -1.249998 11.05987
vt 28.8259 11.05987
vt -31.8259 11.05987
vt -31.8259 0
vt -48.3259 11.05987
vt -48.3259 0
vt 31.8259 0
vt 31.8259 11.05987
vt 48.3259 0
vt 48.3259 11.05987
vt 0 0
vt 0 11.05987
vt 19.5 0
vt 19.5 11.05987
vt 0 48.3259
vt 0 31.8259
vt -19.5 48.3259
vt -19.5 31.8259
vt 19.5 31.8259
vt 19.5 48.3259
vt -19.5 11.05987
vt -19.5 0
vt 19.32972 0
vt 19.32972 11.05987
vt 30.08096 0
vt 30.08096 11.05987
vt -30.25 48.3259
vt -30.25 31.8259
vt 30.25 31.8259
vt 30.25 48.3259
vt -30.25 11.05987
vt -30.25 0
vt 1.054462 0
vt 1.054462 11.05987
vt -30.25 -0.9241047
vt -19.5 -1.054462
vt 19.5 -1.054462
vt 30.25 -0.9241047
vt -0.9241047 11.05987
vt -0.9241047 0
vt -30.25 -10.9241
vt -19.5 -11.08705
vt 19.5 -11.08705
vt 30.25 -10.9241
vt -10.9241 11.05987
vt -10.9241 0
vt 11.25 0
vt 11.25 11.05987
vt 0.01253371 11.05987
vt 0.01253371 0
vt -19.48845 11.05987
vt -19.48845 0
vt 0 -11.25
vt 0 -1.249998
vt -0.09400442 0
vt -0.09400442 11.05987
vt 19.40668 0
vt 19.40668 11.05987
vt 0.01913415 0
vt 0.01913415 11.05987
vt 4.007483 -9.536743E-08
vt 4.00986 11.04185
vt -0.003386299 11.05987
vt -0.003386299 0
vt -4.01883 11.05476
vt -3.995742 -9.536743E-08
vt 12.29151 11.05987
vt 12.29151 0
vt 7.975097 11.0554
vt 8.03475 -9.536743E-08
vt -12.33436 0
vt -12.33436 11.05987
vt -8.089165 -9.536743E-08
vt -8.05896 11.05476
vt 3.983148 11.05987
vt 3.983148 0
vt 0 31.82864
vt -4.015443 31.82907
vt -3.983148 48.32864
vt 0 48.32864
vt 3.992355 31.82607
vt 3.983148 48.3259
vt 8.112383 11.05987
vt 12.33565 11.05987
vt 12.33565 0
vt 8.112383 0
vt -12.33565 31.82864
vt -12.33565 48.32864
vt -8.112383 48.32864
vt -8.060246 31.82907
vt 12.33565 31.8259
vt 8.090451 31.82607
vt 8.112383 48.3259
vt 12.33565 48.3259
vt -4.001486 11.05987
vt -4.001486 0
vt -0.0245533 -1.254529
vt -4.026029 -1.254526
vt -4.015226 28.82798
vt -0.0245533 28.82137
vt 0 28.8259
vt 3.988348 28.82855
vt 4.001486 -1.249998
vt -4.001486 -1.249998
vt -4.001486 -11.25
vt 4.001486 -11.25
vt -8.076244 0
vt -12.33565 0
vt -12.33565 11.05987
vt -8.076244 11.05987
vt -12.36017 -1.254518
vt -12.36017 28.82138
vt -8.043763 28.82798
vt -8.100778 -1.254522
vt 12.33565 -1.249998
vt 8.076244 -1.249998
vt 8.078887 28.82854
vt 12.33565 28.8259
vt -12.33565 -11.25
vt -12.33565 -1.249998
vt -8.076244 -1.249998
vt -8.076244 -11.25
vt 12.33565 -11.25
vt 8.076244 -11.25
vt -0.1258855 11.05543
vt -0.1027975 0.0006776364
vt -0.7777743 4.045166
vt -0.7699442 0.0006774299
vt -3.331034 0.00216341
vt -4.157474 0.00216341
vt -3.343209 4.046652
vt -4.127269 11.05692
vt 0.460773 11.05208
vt 1.13741 4.054722
vt 0.458344 0.01023388
vt 1.152266 0.01023245
vt 3.119661 0.03105164
vt 3.134916 4.075542
vt 3.937675 0.03105164
vt 3.877998 11.08645
vt 0.152565 0.02538371
vt -2.839025 0.02538371
vt 0.1483212 4.069901
vt -2.839306 4.069889
vt 2.795135 0.009490781
vt -0.1965389 0.009490793
vt 2.795347 4.053987
vt -0.1921959 4.053943
vt 0.7421708 2.831478
vt 0.764914 -0.1601086
vt 3.346681 2.83148
vt 3.343566 -0.1601086
vt 7.25512 11.05987
vt 7.25512 0
vt -7.25512 48.32864
vt -7.245199 31.82907
vt 7.264012 31.82648
vt 7.25512 48.3259
vt -7.24622 0
vt -7.24622 11.05987
vt -7.236846 28.82798
vt -7.270755 -1.254523
vt 7.24622 -1.249998
vt 7.260898 28.83489
vt -7.24622 -1.249998
vt -7.24622 -11.25
vt 7.24622 -11.25
vt -3.261782 4.042584
vt -3.358855 4.042584
vt -4.142915 11.05285
vt -3.327868 11.05285
vt 3.295092 11.0214
vt 4.101996 11.02818
vt 3.358943 4.01726
vt 3.26187 4.01726
vt -3.358855 2.831749
vt -3.261782 2.831749
vt -3.261782 -0.15588
vt -3.358855 -0.15588
vt 4.709091 11.05987
vt 4.709091 0
vt -4.720279 31.82907
vt -4.709091 48.32864
vt 4.659502 31.82648
vt 4.709091 48.3259
vt -4.71381 0
vt -4.71381 11.05987
vt -4.738351 -1.254525
vt -4.715995 28.82798
vt 4.71381 -1.249998
vt 4.682246 28.83489
vt -4.71381 -1.249998
vt -4.71381 -11.25
vt 4.71381 -11.25
vt -0.75 4.042584
vt -1.095848 4.042584
vt -0.802947 11.05285
vt -0.09811163 11.05285
vt 0.07347941 11.01462
vt 0.7742429 11.01801
vt 1.095936 4.01726
vt 0.7500882 4.01726
vt -1.095848 2.831749
vt -1.095848 -0.15588
vt -0.75 2.831749
vt -0.75 -0.15588

vn 1 0 0
vn -1 0 0
vn 0 0 1
vn 0 1 0
vn 0 -1 0
vn 0 0 -1
vn -0.01515609 0 0.9998851
vn 0.01002698 0 -0.9999498
vn -0.00835595 0 0.9999651
vn -0.0006637833 0 -0.9999998
vn -0.001160502 0.0001791238 -0.9999992
vn -0.00165722 0.0003582477 -0.9999986
vn 0.001530682 0 -0.9999988
vn 0.001075857 0.0001775795 -0.9999993
vn 0.000621032 0.0003551591 -0.9999998
vn 0.001274433 -0.9999992 0
vn 0.0006372164 -0.9999996 0.0001550772
vn -0.000598487 -0.9999996 0.000153186
vn -0.001196974 -0.9999992 0.000306372
vn 0.002258131 -0.9999948 -0.0003004359
vn 0.004516262 -0.9999896 -0.0006008718
vn 0.0008727194 -2.12972E-05 0.9999996
vn -0.0004915853 -6.797422E-05 0.9999999
vn -0.0006078963 -4.455768E-05 0.9999998
vn -0.01344808 0.0003556805 -0.9999095
vn -0.01129364 0.0007174283 -0.9999336
vn -0.009139202 0.001079176 -0.9999577
vn 0.007757506 0.001074812 -0.9999693
vn 0.009720717 0.0006851294 -0.9999505
vn 0.01168393 0.0002954467 -0.9999318
vn 0.9999924 0.003779046 0.001040985
vn 0.9999939 0.003394602 0.0005204926
vn 0.9999954 0.003010158 0
vn -0.9999692 -0.001936335 0.007602321
vn -0.9999812 0.000875568 0.00380116
vn -0.9999932 0.003687471 0
vn 0 -0.9999999 0.0003101545
vn -0.00419971 -0.9999824 -0.0002565347
vn -0.008399419 -0.9999647 -0.0003644506
vn -3.963741E-06 -0.0009438159 -0.9999996
vn -0.004836607 -0.9999881 -0.0005975246
vn -0.002418303 -0.999994 -0.000542059

usemtl ProBuilder_Default_URP
f 1/1/1 2/2/1 4/4/1 3/3/1
f 5/5/2 6/6/2 8/8/2 7/7/2
f 11/11/1 12/12/1 10/10/1 9/9/1
f 15/15/2 16/16/2 14/14/2 13/13/2
f 19/19/3 20/20/3 18/18/3 17/17/3
f 22/23/4 19/24/4 17/22/4 21/21/4
f 20/25/5 24/26/5 23/21/5 18/22/5
f 24/27/6 22/28/6 21/17/6 23/18/6
f 27/31/7 28/32/7 26/30/7 25/29/7
f 15/33/4 13/34/4 19/24/4 22/23/4
f 14/35/5 16/36/5 24/26/5 20/25/5
f 16/37/6 15/38/6 22/28/6 24/27/6
f 29/39/1 30/40/1 20/9/1 19/10/1
f 31/41/4 29/42/4 19/24/4 13/34/4
f 30/43/5 32/44/5 14/35/5 20/25/5
f 32/45/2 31/46/2 13/13/2 14/14/2
f 27/47/4 25/48/4 29/42/4 31/41/4
f 26/49/5 28/50/5 32/44/5 30/43/5
f 28/51/2 27/52/2 31/46/2 32/45/2
f 33/53/1 34/54/1 4/4/1 2/2/1
f 30/57/8 29/58/8 5/56/8 7/55/8
f 26/49/5 30/43/5 7/60/5 35/59/5
f 29/42/4 25/48/4 36/59/4 5/60/4
f 25/63/9 26/64/9 35/62/9 36/61/9
f 37/67/11 38/68/12 8/66/11 6/65/10
f 39/71/3 40/72/3 17/70/3 18/69/3
f 41/75/14 42/76/15 1/74/14 3/73/13
f 43/79/3 44/80/3 9/78/3 10/77/3
f 46/82/6 45/81/6 23/18/6 21/17/6
f 18/83/16 23/86/17 45/85/5 39/84/17
f 46/88/4 21/21/4 17/22/4 40/87/4
f 48/92/6 12/91/6 11/90/6 47/89/6
f 44/96/19 47/95/18 11/94/5 9/93/18
f 12/100/4 48/99/4 43/98/4 10/97/4
f 35/18/3 49/101/3 50/102/3 36/17/3
f 7/103/5 8/106/20 38/105/21 51/104/20
f 37/108/4 6/107/4 5/60/4 52/109/4
f 35/59/5 7/60/5 51/110/5 49/111/5
f 52/109/4 5/60/4 36/59/4 50/112/4
f 54/116/3 34/115/3 33/114/3 53/113/3
f 55/120/5 41/119/18 3/118/19 4/117/18
f 1/124/4 42/123/4 56/122/4 2/121/4
f 34/125/5 54/128/5 55/127/5 4/126/5
f 2/121/4 56/122/4 53/130/4 33/129/4
f 57/133/22 58/134/22 40/132/22 39/131/22
f 60/137/24 44/138/24 43/136/24 59/135/23
f 37/141/26 62/142/27 61/140/26 38/139/25
f 42/145/29 41/146/30 64/144/29 63/143/28
f 64/149/32 60/150/33 59/148/32 63/147/31
f 57/153/35 61/154/36 62/152/35 58/151/34
f 63/158/4 59/157/4 58/155/4 62/156/4
f 48/92/6 47/89/6 65/159/6 66/160/6
f 47/95/37 44/96/37 67/162/37 65/161/37
f 66/164/4 59/163/4 43/98/4 48/99/4
f 69/166/3 54/116/3 53/113/3 68/165/3
f 41/119/38 55/120/5 71/168/38 70/167/39
f 63/170/4 72/169/4 56/122/4 42/123/4
f 54/128/5 69/172/5 71/171/5 55/127/5
f 56/122/4 72/169/4 68/173/4 53/130/4
f 67/177/3 44/176/3 60/175/3 73/174/3
f 70/178/40 74/181/40 64/180/40 41/179/40
f 64/185/5 74/184/5 73/183/5 60/182/5
f 76/187/6 75/186/6 45/81/6 46/82/6
f 66/160/6 65/159/6 75/186/6 76/187/6
f 75/189/37 77/188/37 39/84/37 45/85/37
f 65/161/37 67/162/37 77/188/37 75/189/37
f 66/164/4 76/191/4 58/190/4 59/163/4
f 76/191/4 46/88/4 40/87/4 58/190/4
f 49/101/3 79/193/3 78/192/3 50/102/3
f 79/193/3 69/166/3 68/165/3 78/192/3
f 81/195/42 80/194/37 51/104/42 38/105/41
f 70/167/18 71/168/37 80/194/18 81/195/19
f 63/170/4 62/197/4 82/196/4 72/169/4
f 62/197/4 37/108/4 52/109/4 82/196/4
f 79/199/5 80/198/5 71/171/5 69/172/5
f 49/111/5 51/110/5 80/198/5 79/199/5
f 72/169/4 82/196/4 78/200/4 68/173/4
f 82/196/4 52/109/4 50/112/4 78/200/4
f 77/203/3 83/202/3 57/201/3 39/204/3
f 77/203/3 67/177/3 73/174/3 83/202/3
f 38/205/40 61/208/40 84/207/40 81/206/40
f 84/207/40 74/181/40 70/178/40 81/206/40
f 74/184/5 84/210/5 83/209/5 73/183/5
f 61/212/5 57/211/5 83/209/5 84/210/5

